<?xml version="1.0" encoding="iso-8859-1"?>
<!-- Generator: Adobe Illustrator 18.0.0, SVG Export Plug-In . SVG Version: 6.00 Build 0)  -->
<!DOCTYPE svg PUBLIC "-//W3C//DTD SVG 1.1//EN" "http://www.w3.org/Graphics/SVG/1.1/DTD/svg11.dtd">
<svg xmlns="http://www.w3.org/2000/svg" xmlns:xlink="http://www.w3.org/1999/xlink" version="1.1" id="Capa_1" x="0px" y="0px" viewBox="0 0 335.821 335.821" style="enable-background:new 0 0 335.821 335.821;" xml:space="preserve" width="512px" height="512px">
<g>
	<path d="M274.185,146.82c-4.007,0-7.922,0.397-11.719,1.131l-16.673-44.624l31.018-6.352   c-0.181,2.784-1.067,5.489-2.646,7.88c-2.394,3.625-6.055,6.103-10.311,6.974c-5.411,1.108-8.898,6.393-7.791,11.803   c0.97,4.734,5.136,7.996,9.786,7.996c0.665,0,1.341-0.066,2.017-0.205c9.49-1.943,17.654-7.466,22.99-15.55   c5.336-8.085,7.205-17.763,5.262-27.253l-0.063-0.307l3.753-3.759c3.902-3.908,3.897-10.24-0.011-14.142   c-3.908-3.902-10.239-3.897-14.142,0.011l-5.429,5.437l-51.498,10.545c-5.411,1.108-8.898,6.393-7.791,11.803   c0.529,2.584,2.014,4.723,4.007,6.139c0.101,0.461,0.223,0.922,0.394,1.377l3.97,10.625l-104.757,7.277l-12.355-34.306h7.483   c5.522,0,10-4.478,10-10s-4.478-10-10-10H98.643c-4.969,0-9.818-0.956-14.415-2.842c-5.107-2.096-10.951,0.346-13.047,5.455   c-2.097,5.109,0.346,10.95,5.455,13.047c4.594,1.886,9.357,3.15,14.225,3.807c0.094,0.446,0.208,0.892,0.367,1.333l15.234,42.302   l-16.198,21.474c-8.561-4.51-18.298-7.077-28.628-7.077C27.65,146.82,0,174.47,0,208.456s27.65,61.637,61.637,61.637   c27.619,0,51.053-18.26,58.865-43.341l27.895,3.885c0.462,0.064,0.922,0.096,1.381,0.096c2.857,0,5.606-1.227,7.52-3.409   l79.558-90.775l6.861,18.363c-18.596,10.624-31.167,30.637-31.167,53.545c0,33.986,27.649,61.637,61.636,61.637   s61.637-27.65,61.637-61.637S308.171,146.82,274.185,146.82z M133.829,208.415l-10.594-1.476   c-0.386-15.864-6.789-30.254-17.017-40.979l8.341-11.057L133.829,208.415z M20,208.456c0-22.958,18.678-41.636,41.637-41.636   c5.802,0,11.33,1.196,16.353,3.35l-24.336,32.263c-2.135,2.83-2.611,6.578-1.254,9.853s4.347,5.585,7.857,6.074l40.021,5.574   c-6.156,15.314-21.151,26.158-38.641,26.158C38.678,250.093,20,231.415,20,208.456z M79.863,200.898l14.082-18.668   c4.97,6.11,8.247,13.648,9.103,21.897L79.863,200.898z M152.811,202.098l-21.216-58.912l77.571-5.389L152.811,202.098z    M232.549,208.456c0-14.315,7.264-26.965,18.298-34.462l13.971,37.392c1.502,4.021,5.315,6.503,9.368,6.503   c1.163,0,2.346-0.204,3.499-0.636c5.174-1.933,7.801-7.693,5.867-12.867l-13.94-37.309c1.502-0.165,3.027-0.256,4.573-0.256   c22.959,0,41.637,18.678,41.637,41.636c0,22.959-18.678,41.637-41.637,41.637C251.227,250.093,232.549,231.415,232.549,208.456z" fill="#007276"/>
</g>
<g>
</g>
<g>
</g>
<g>
</g>
<g>
</g>
<g>
</g>
<g>
</g>
<g>
</g>
<g>
</g>
<g>
</g>
<g>
</g>
<g>
</g>
<g>
</g>
<g>
</g>
<g>
</g>
<g>
</g>
</svg>
