<?xml version="1.0" encoding="iso-8859-1"?>
<!-- Generator: Adobe Illustrator 19.0.0, SVG Export Plug-In . SVG Version: 6.00 Build 0)  -->
<svg xmlns="http://www.w3.org/2000/svg" xmlns:xlink="http://www.w3.org/1999/xlink" version="1.1" id="Layer_1" x="0px" y="0px" viewBox="0 0 511.999 511.999" style="enable-background:new 0 0 511.999 511.999;" xml:space="preserve" width="512px" height="512px">
<g>
	<g>
		<path d="M510.222,287.02c-26.192-63.234-63.725-119.912-111.553-168.458C349.141,68.292,290.702,28.998,224.974,1.773    c-5.703-2.36-12.109-2.36-17.811,0c-5.703,2.363-10.234,6.892-12.595,12.595L1.772,479.817c-3.601,8.696-1.61,18.706,5.045,25.362    c4.451,4.453,10.404,6.817,16.46,6.817c2.999,0,6.023-0.579,8.901-1.772l465.449-192.797    C509.5,312.508,515.14,298.894,510.222,287.02z M287.718,353.992c-2.049-4.985-5.094-9.657-9.143-13.704    c-16.395-16.393-42.98-16.393-59.373,0c-12.395,12.393-15.413,30.606-9.068,45.841l-143.862,59.59l37.515-90.561    c16.486,13.33,40.714,12.334,56.043-2.993c16.392-16.395,16.392-42.978,0-59.374c-7.061-7.059-16.008-11.071-25.22-12.052    l56.915-137.404c74.051,42.378,134.623,102.96,177.108,177.141L287.718,353.992z M411.975,302.526    c-47.71-85.512-117.121-154.932-202.498-202.526l18.975-45.811c101.342,47.715,181.64,128.011,229.353,229.353L411.975,302.526z" fill="#007272"/>
	</g>
</g>
<g>
	<g>
		<circle cx="231.078" cy="257.158" r="41.983" fill="#007272"/>
	</g>
</g>
<g>
</g>
<g>
</g>
<g>
</g>
<g>
</g>
<g>
</g>
<g>
</g>
<g>
</g>
<g>
</g>
<g>
</g>
<g>
</g>
<g>
</g>
<g>
</g>
<g>
</g>
<g>
</g>
<g>
</g>
</svg>
